{"title":"Fantastic Four 2015 720p BluRay H264 AAC 23-MULTI IDX/SUBS-RARBG","uid":12630211,"size":1471233878,"categoryP":"video","categoryS":"hd___movies","magnet":"?xt=urn:btih:da842c8e5f55dbd5e655d2a13d9e1c2a3c031219&amp;dn=Fantastic+Four+2015+720p+BluRay+H264+AAC+23-MULTI+IDX%2FSUBS-RARBG&amp;tr=udp%3A%2F%2Ftracker.leechers-paradise.org%3A6969&amp;tr=udp%3A%2F%2Fzer0day.ch%3A1337&amp;tr=udp%3A%2F%2Fopen.demonii.com%3A1337&amp;tr=udp%3A%2F%2Ftracker.coppersurfer.tk%3A6969&amp;tr=udp%3A%2F%2Fexodus.desync.com%3A6969","seeders":1,"leechers":5,"uploader":"TheRival","files":7,"time":1445828026,"description":"Subtitles:\r\nEnglish, Spanish, French, Danish, Finnish, Norwegian, Portuguese, Swedish, Arabic, Lulgarian, Croatian, Czech, Greek, Hebrew, Hindi, Hungarian, Islenska, Korean, Polish, Romanian, Serbian, Slovak, Slovenian\r\n\r\nScreens: \nhttp://extraimago.com/image/zyU \nhttp://extraimago.com/image/zyz \nhttp://extraimago.com/image/zy0 \nhttp://extraimago.com/image/zyJ \nhttp://extraimago.com/image/zyK\r\n\r\nVideo\r\nID : 1\r\nFormat : AVC\r\nFormat/Info : Advanced Video Codec\r\nFormat profile :   \r\nFormat settings, CABAC : Yes\r\nFormat settings, ReFrames : 4 frames\r\nCodec ID : avc1\r\nCodec ID/Info : Advanced Video Coding\r\nDuration : 1h 39mn\r\nBit rate : 1 500 Kbps\r\nWidth : 1 280 pixels\r\nHeight : 536 pixels\r\nDisplay aspect ratio : 2.40:1\r\nFrame rate mode : Constant\r\nFrame rate : 23.976 fps\r\nColor space : YUV\r\nChroma subsampling : 4:2:0\r\nBit depth : 8 bits\r\nScan type : Progressive\r\nBits/(Pixel*Frame) : 0.091\r\nStream size : 1.05 GiB (87%)\r\nWriting library : x264 core 148 r2597M e86f3a1\r\nEncoding settings : cabac=1 / ref=4 / deblock=1:-1:-1 / analyse=0x3:0x113 / me=umh / subme=9 / psy=1 / psy_rd=1.00:0.15 / mixed_ref=1 / me_range=24 / chroma_me=1 / trellis=2 / 8x8dct=1 / cqm=0 / deadzone=21,11 / fast_pskip=1 / chroma_qp_offset=-3 / threads=32 / lookahead_threads=4 / sliced_threads=0 / nr=0 / decimate=1 / interlaced=0 / bluray_compat=0 / constrained_intra=0 / bframes=3 / b_pyramid=2 / b_adapt=1 / b_bias=0 / direct=1 / weightb=1 / open_gop=0 / weightp=2 / keyint=250 / keyint_min=25 / scenecut=40 / intra_refresh=0 / rc_lookahead=50 / rc=2pass / mbtree=1 / bitrate=1500 / ratetol=1.0 / qcomp=0.60 / qpmin=0 / qpmax=69 / qpstep=4 / cplxblur=20.0 / qblur=0.5 / vbv_maxrate=31250 / vbv_bufsize=31250 / nal_hrd=none / filler=0 / ip_ratio=1.40 / aq=3:1.00\r\nEncoded date : UTC 1904-01-01 00:00:00\r\nTagged date : UTC 1904-01-01 00:00:00\r\n\r\nAudio\r\nID : 2\r\nFormat : AAC\r\nFormat/Info : Advanced Audio Codec\r\nFormat profile : LC\r\nCodec ID : 40\r\nDuration : 1h 39mn\r\nBit rate mode : Constant\r\nBit rate : 224 Kbps\r\nChannel(s) : 2 channels\r\nChannel(s)_Original : 6 channels\r\nChannel positions : Front: L C R, Side: L R, LFE\r\nSampling rate : 48.0 KHz\r\nCompression mode : Lossy\r\nStream size : 160 MiB (13%)\r\nLanguage : English\r\nEncoded date : UTC 1904-01-01 00:00:00\r\nTagged date : UTC 1904-01-01 00:00:00\r\n\r\nMenu #1\r\nID : 3\r\nCodec ID : text\r\nDuration : 1h 39mn\r\nLanguage : English\r\nEncoded date : UTC 1904-01-01 00:00:00\r\nTagged date : UTC 1904-01-01 00:00:00\r\nBit rate mode : CBR\r\n00:00:00.000 : 00:00:00.000\r\n00:02:30.068 : 00:02:30.025\r\n00:07:22.652 : 00:07:22.609\r\n00:11:00.202 : 00:11:00.159\r\n00:14:59.567 : 00:14:59.524\r\n00:17:57.828 : 00:17:57.785\r\n00:22:03.365 : 00:22:03.322\r\n00:24:44.526 : 00:24:44.483\r\n00:27:49.920 : 00:27:49.877\r\n00:30:19.819 : 00:30:19.776\r\n00:34:56.054 : 00:34:56.011\r\n00:38:16.420 : 00:38:16.377\r\n00:43:10.130 : 00:43:10.087\r\n00:48:16.103 : 00:48:16.060\r\n00:51:35.344 : 00:51:35.301\r\n00:54:27.098 : 00:54:27.055\r\n00:57:18.144 : 00:57:18.101\r\n01:00:27.876 : 01:00:27.833\r\n01:04:34.956 : 01:04:34.913\r\n01:08:04.540 : 01:08:04.497\r\n01:12:08.325 : 01:12:08.282\r\n01:15:10.007 : 01:15:09.964\r\n01:19:10.205 : 01:19:10.162\r\n01:22:16.558 : 01:22:16.515\r\n01:24:49.586 : 01:24:49.543\r\n01:27:01.384 : 01:27:01.341\r\n01:30:49.612 : 01:30:49.569\r\n01:33:00.493 : 01:33:00.450\r\n\r\nMenu #2\r\n00:00:00.043 : 00:00:00.000\r\n00:02:30.068 : 00:02:30.025\r\n00:07:22.652 : 00:07:22.609\r\n00:11:00.202 : 00:11:00.159\r\n00:14:59.567 : 00:14:59.524\r\n00:17:57.828 : 00:17:57.785\r\n00:22:03.365 : 00:22:03.322\r\n00:24:44.526 : 00:24:44.483\r\n00:27:49.920 : 00:27:49.877\r\n00:30:19.819 : 00:30:19.776\r\n00:34:56.054 : 00:34:56.011\r\n00:38:16.420 : 00:38:16.377\r\n00:43:10.130 : 00:43:10.087\r\n00:48:16.103 : 00:48:16.060\r\n00:51:35.344 : 00:51:35.301\r\n00:54:27.098 : 00:54:27.055\r\n00:57:18.144 : 00:57:18.101\r\n01:00:27.876 : 01:00:27.833\r\n01:04:34.956 : 01:04:34.913\r\n01:08:04.540 : 01:08:04.497\r\n01:12:08.325 : 01:12:08.282\r\n01:15:10.007 : 01:15:09.964\r\n01:19:10.205 : 01:19:10.162\r\n01:22:16.558 : 01:22:16.515\r\n01:24:49.586 : 01:24:49.543\r\n01:27:01.384 : 01:27:01.341\r\n01:30:49.612 : 01:30:49.569\r\n01:33:00.493 : 01:33:00.450","torrent":{"xt":"urn:btih:da842c8e5f55dbd5e655d2a13d9e1c2a3c031219","amp;dn":"Fantastic+Four+2015+720p+BluRay+H264+AAC+23-MULTI+IDX%2FSUBS-RARBG","amp;tr":["udp%3A%2F%2Ftracker.leechers-paradise.org%3A6969","udp%3A%2F%2Fzer0day.ch%3A1337","udp%3A%2F%2Fopen.demonii.com%3A1337","udp%3A%2F%2Ftracker.coppersurfer.tk%3A6969","udp%3A%2F%2Fexodus.desync.com%3A6969"],"infoHash":"da842c8e5f55dbd5e655d2a13d9e1c2a3c031219","infoHashBuffer":{"type":"Buffer","data":[218,132,44,142,95,85,219,213,230,85,210,161,61,158,28,42,60,3,18,25]},"announce":[],"urlList":[]}}